<svg width="60" height="60" viewBox="0 0 60 60" fill="none" xmlns="http://www.w3.org/2000/svg">
<rect width="60" height="60" fill="white"/>
<path d="M16.8125 19C15.2585 19 14 20.12 14 21.5V31H32V21.5C32 20.1187 30.74 19 29.1875 19H16.8125ZM32 33H14V36.5C14 37.88 15.26 39 16.8125 39H17.375C17.375 37.9391 17.8491 36.9217 18.693 36.1716C19.5369 35.4214 20.6815 35 21.875 35C23.0685 35 24.2131 35.4214 25.057 36.1716C25.9009 36.9217 26.375 37.9391 26.375 39H30.875C31.1734 39 31.4595 38.8946 31.6705 38.7071C31.8815 38.5196 32 38.2652 32 38V33Z" fill="#FF4004"/>
<path d="M24.5303 39.1053C24.5303 38.6027 24.2916 38.1208 23.8668 37.7655C23.442 37.4102 22.8659 37.2105 22.2651 37.2105C21.6644 37.2105 21.0882 37.4102 20.6634 37.7655C20.2386 38.1208 20 38.6027 20 39.1053C20 39.6078 20.2386 40.0897 20.6634 40.445C21.0882 40.8004 21.6644 41 22.2651 41C22.8659 41 23.442 40.8004 23.8668 40.445C24.2916 40.0897 24.5303 39.6078 24.5303 39.1053ZM35.856 23C35.5556 23 35.2675 23.0998 35.0551 23.2775C34.8427 23.4552 34.7234 23.6961 34.7234 23.9474V38.1579C34.7234 38.2678 34.746 38.3726 34.7868 38.4712C34.975 37.5379 35.5739 36.6973 36.4657 36.1148C37.3575 35.5323 38.4776 35.25 39.6057 35.3235C40.7338 35.397 41.7881 35.8209 42.5614 36.5119C43.3346 37.2029 43.7707 38.1109 43.7839 39.0573C45.072 38.8362 46.0823 37.8762 45.9947 36.6787C45.6569 32.0535 43.6967 27.6142 40.359 23.9158C40.0991 23.6298 39.7632 23.3983 39.378 23.2393C38.9928 23.0804 38.5687 22.9985 38.1392 23H35.856Z" fill="#FF4004"/>
<path d="M41 39C41 38.4696 40.7893 37.9609 40.4142 37.5858C40.0391 37.2107 39.5304 37 39 37C38.4696 37 37.9609 37.2107 37.5858 37.5858C37.2107 37.9609 37 38.4696 37 39C37 39.5304 37.2107 40.0391 37.5858 40.4142C37.9609 40.7893 38.4696 41 39 41C39.5304 41 40.0391 40.7893 40.4142 40.4142C40.7893 40.0391 41 39.5304 41 39Z" fill="#FF4004"/>
</svg>
