<svg width="44" height="44" viewBox="0 0 44 44" fill="none" xmlns="http://www.w3.org/2000/svg">
<path fill-rule="evenodd" clip-rule="evenodd" d="M32.6957 11.3043C30.5803 9.18926 27.8853 7.74893 24.9514 7.16548C22.0175 6.58204 18.9764 6.88167 16.2128 8.02651C13.4492 9.17134 11.0871 11.1099 9.42524 13.5972C7.76337 16.0845 6.87635 19.0086 6.87635 22C6.87635 24.9914 7.76337 27.9155 9.42524 30.4028C11.0871 32.8901 13.4492 34.8287 16.2128 35.9735C18.9764 37.1183 22.0175 37.418 24.9514 36.8345C27.8853 36.2511 30.5803 34.8107 32.6957 32.6957C32.9563 32.4528 33.3011 32.3206 33.6573 32.3268C34.0135 32.3331 34.3534 32.4774 34.6053 32.7294C34.8572 32.9813 35.0015 33.3212 35.0078 33.6774C35.0141 34.0336 34.8819 34.3783 34.639 34.639C27.6595 41.6203 16.3423 41.6203 9.361 34.639C2.37967 27.6595 2.37967 16.3423 9.361 9.361C16.3405 2.37967 27.6577 2.37967 34.639 9.361C36.3012 11.0191 37.6194 12.9892 38.5179 15.1581C39.4165 17.3271 39.8777 19.6523 39.875 22C39.875 23.7875 39.3323 25.4595 38.3918 26.7135C37.4495 27.9693 36.0452 28.875 34.375 28.875C32.7177 28.875 31.3207 27.9822 30.3783 26.741C29.3843 28.4981 27.8629 29.8981 26.0294 30.743C24.1959 31.5879 22.1431 31.835 20.1615 31.4491C18.18 31.0633 16.3699 30.0641 14.9873 28.593C13.6048 27.1219 12.7198 25.2533 12.4576 23.2516C12.1954 21.2499 12.5693 19.2165 13.5262 17.4389C14.4832 15.6614 15.9749 14.2297 17.7903 13.3465C19.6056 12.4633 21.6527 12.1733 23.642 12.5174C25.6312 12.8616 27.4619 13.8226 28.875 15.2643V15.125C28.875 14.7603 29.0199 14.4106 29.2777 14.1527C29.5356 13.8949 29.8853 13.75 30.25 13.75C30.6147 13.75 30.9644 13.8949 31.2223 14.1527C31.4801 14.4106 31.625 14.7603 31.625 15.125V22C31.625 23.2503 32.0063 24.3283 32.5582 25.0635C33.1082 25.7987 33.7663 26.125 34.375 26.125C34.9837 26.125 35.64 25.7987 36.1918 25.0635C36.7418 24.3302 37.125 23.2485 37.125 22C37.128 20.0133 36.7382 18.0456 35.978 16.21C35.2179 14.3744 34.1024 12.7073 32.6957 11.3043ZM28.875 22C28.875 20.1766 28.1507 18.428 26.8614 17.1386C25.572 15.8493 23.8234 15.125 22 15.125C20.1766 15.125 18.428 15.8493 17.1386 17.1386C15.8493 18.428 15.125 20.1766 15.125 22C15.125 23.8234 15.8493 25.572 17.1386 26.8614C18.428 28.1507 20.1766 28.875 22 28.875C23.8234 28.875 25.572 28.1507 26.8614 26.8614C28.1507 25.572 28.875 23.8234 28.875 22Z" fill="#FF4004"/>
</svg>
