<svg style='color:blue' viewBox="0 0 111 106" fill="none" xmlns="http://www.w3.org/2000/svg">
<path d="M52.4248 67.0633L79.3885 92.8125C81.701 94.9502 84.8008 96.1343 88.0192 96.1094C91.2376 96.0844 94.3168 94.8524 96.5926 92.6791C98.8684 90.5058 100.159 87.5653 100.185 84.4919C100.211 81.4184 98.9709 78.4583 96.7323 76.25L69.5512 50.2932M52.4248 67.0633L63.9688 53.6808C65.4349 51.9848 67.3913 50.916 69.5558 50.2977M52.4248 67.0633L30.8954 92.0307C29.852 93.2454 28.5538 94.2379 27.0844 94.9444C25.615 95.651 24.007 96.0559 22.3638 96.1332C20.7207 96.2104 19.0788 95.9582 17.5438 95.3929C16.0089 94.8275 14.6149 93.9615 13.4516 92.8506C12.2883 91.7397 11.3815 90.4085 10.7895 88.9427C10.1974 87.4769 9.93337 85.909 10.0142 84.3399C10.0951 82.7707 10.5191 81.2351 11.259 79.8319C11.9989 78.4287 13.0383 77.189 14.3102 76.1926L45.9313 51.3268M69.5558 50.2977C72.0995 49.5733 74.9347 49.4673 77.6172 49.6793C81.2331 49.9758 84.8674 49.3642 88.1594 47.9052C91.4514 46.4462 94.2866 44.1905 96.3838 41.3619C98.481 38.5333 99.7671 35.2302 100.115 31.7803C100.462 28.3305 99.859 24.8538 98.3649 21.6953L83.2134 36.1687C80.6785 35.609 78.3591 34.3807 76.5193 32.6238C74.6795 30.8669 73.3933 28.652 72.8072 26.2313L87.9587 11.7622C84.6512 10.3355 81.0105 9.75948 77.3979 10.0914C73.7854 10.4232 70.3264 11.6514 67.3644 13.6541C64.4024 15.6568 62.0403 18.3643 60.5125 21.508C58.9846 24.6518 58.3442 28.1223 58.6547 31.5754C59.0755 36.3277 58.3263 41.5747 54.4737 44.6046L54.0019 44.98M45.9313 51.3268L26.9364 33.1875H20.4198L10.0135 16.625L16.951 10L34.2948 19.9375V26.1606L53.9973 44.9756M45.9267 51.3223L53.9973 44.9756M84.5917 81.2187L72.451 69.625M22.1172 84.5312H22.1542V84.5666H22.1172V84.5312Z" stroke="currentColor" stroke-width="5" stroke-linecap="round" stroke-linejoin="round"/>
</svg>
