<svg width="90" height="86" viewBox="0 0 90 86" fill="none" xmlns="http://www.w3.org/2000/svg">
<path d="M15.3675 71.3155C16.6734 72.5637 18.2238 73.5538 19.9302 74.2293C21.6365 74.9048 23.4655 75.2525 25.3125 75.2525C27.1595 75.2525 28.9885 74.9048 30.6948 74.2293C32.4012 73.5538 33.9516 72.5637 35.2575 71.3155L59.2613 48.375M25.3125 75.25C21.5829 75.25 18.006 73.8343 15.3688 71.3143C12.7316 68.7942 11.25 65.3763 11.25 61.8125V14.7813C11.25 12.556 13.14 10.75 15.4688 10.75H35.1562C37.485 10.75 39.375 12.556 39.375 14.7813V29.3726M25.3125 75.25C29.0421 75.25 32.619 73.8343 35.2562 71.3143C37.8934 68.7942 39.375 65.3763 39.375 61.8125V29.3726M25.3125 75.25H74.5312C76.86 75.25 78.75 73.444 78.75 71.2188V52.4063C78.75 50.181 76.86 48.375 74.5312 48.375H59.2613M39.375 29.3726L50.175 19.0526C51.8175 17.4795 54.4875 17.4795 56.1375 19.0526L70.0575 32.3575C71.7075 33.9342 71.7075 36.4855 70.0575 38.055L59.2613 48.375M25.3125 61.8125H25.3425V61.8412H25.3125V61.8125Z" stroke="#FF4004" stroke-width="5" stroke-linecap="round" stroke-linejoin="round"/>
</svg>
